<svg width="216" height="429" viewBox="0 0 216 429" fill="none" xmlns="http://www.w3.org/2000/svg">
<path d="M2.25781 4.50932C187.287 -18.6828 213.676 126.025 212.999 145.171C207.453 301.967 79.3952 427 79.3952 427" stroke="#004E4C" stroke-width="4" stroke-linecap="round" stroke-linejoin="round" stroke-dasharray="10 12"/>
<path fill-rule="evenodd" clip-rule="evenodd" d="M170.683 283.796C168.305 281.363 164.779 280.662 161.99 281.319C159.87 281.818 158.192 283.087 157.462 284.812C156.716 286.578 156.838 289.003 159.067 291.806C160.664 293.813 160.864 296.566 159.569 298.557C158.7 299.896 157.151 300.838 154.98 301.038C151.252 301.38 149.007 297.928 148.503 293.874C147.64 286.959 151.968 278.023 164.122 277.331C165.912 277.23 167.027 276.842 167.618 276.447C168.262 276.02 168.592 275.493 168.747 274.98C168.928 274.377 168.896 273.726 168.554 273.057C168.238 272.44 167.47 271.662 166.2 271.03C160.532 268.203 142.509 266.445 136.679 283.348C133.614 292.235 136.271 300.673 140.664 307.584C147.014 317.573 156.945 324.28 156.945 324.28C157.748 324.823 158.829 324.696 159.484 323.982C164.177 318.883 171.873 310.547 174.615 301.955C176.604 295.73 176.129 289.372 170.683 283.796Z" fill="#004E4C"/>
</svg>
