<svg width="39" height="54" viewBox="0 0 39 54" fill="none" xmlns="http://www.w3.org/2000/svg"><path fill-rule="evenodd" clip-rule="evenodd" d="M23.3741 52.5681c.7445.7273 1.7936 1.0555 2.8234.8882 1.0255-.1631 1.9137-.8066 2.3964-1.7313 0 0 6.7216-12.9477 9.2103-25.4727 1.6649-8.3972 1.2057-16.57128-3.1902-21.40492C31.5374 1.46619 26.5107-.621329 18.5533.166042 7.93771 1.21301 2.84018 5.19062.917882 9.97492-.982966 14.7034.197067 20.7536 3.27361 26.8981 8.64576 37.608 19.5231 48.8243 23.3741 52.5681zm-4.5698-38.9523c3.0615-.6244 6.0223 1.5082 6.6723 4.6812.6479 3.171-1.2401 6.299-4.2973 6.9233-3.0573.6244-6.0222-1.5125-6.668-4.6813-.6479-3.1709 1.2358-6.2989 4.293-6.9232z" fill="#004E4C"/></svg>