<svg width="49" height="42" viewBox="0 0 49 42" fill="none" xmlns="http://www.w3.org/2000/svg"><path fill-rule="evenodd" clip-rule="evenodd" d="M35.3709 28.9725c-3.4305 1.0433-8.5102.8109-13.8831-.7897-5.3695-1.5997-9.8547-4.2161-12.32704-7.0205-1.27152-1.4407-2.01462-2.8927-1.68661-4.2119.32912-1.3232 1.64491-2.1644 3.41315-2.7028 3.4309-1.0441 8.5116-.8112 13.884.7902 5.3695 1.5998 9.8547 4.2162 12.3276 7.0197 1.2715 1.4407 2.0131 2.893 1.6856 4.2114-.3276 1.3229-1.6434 2.1641-3.4136 2.7036zm12.3058-8.26c-1.074-3.4796-1.8247-6.3539-2.7593-8.7393-1.0056-2.56175-2.2324-4.58475-4.1916-6.20701-2.5365-2.10134-6.354-3.54951-12.7596-4.50343C17.7514-.257989 11.4395-.647275 7.38402 1.46058 3.27066 3.60046 1.30613 8.30746.145943 17.3109c-.47024 3.6449.235041 6.3397 1.553077 8.4107 1.95843 3.075 5.33484 4.7991 8.58628 6.1453 1.6438.6809 3.2456 1.2663 4.5468 1.9278 1.0445.5308 1.8969 1.0727 2.2623 1.8544 1.0883 2.33 2.0316 3.7917 2.8522 4.6465.7408.7714 1.444 1.1319 2.0827 1.2608 1.0432.2098 2.0437-.204 2.986-1.0338.8167-.718 1.6367-1.7623 2.6113-2.5275.7283-.5707 1.5457-.9965 2.6119-.7071 9.2581 2.5142 21.3722-3.8436 17.4382-16.5755z" fill="#004E4C"/></svg>