<svg width="124" height="36" viewBox="0 0 124 36" fill="none" xmlns="http://www.w3.org/2000/svg"><g clip-path="url(#clip0)"><path d="M35.9 9.1c-.1-.7.5-1.1.8-1.1h3.2c.2 0 .6.1.8.6l2.9 8.7 4.7-7.6c.1-.2.4-.4.7-.4h.3c.4 0 .6.2.8.4l4.7 7.6 2.9-8.7c.2-.4.5-.6.8-.6h3.1c.5 0 1 .6.8 1.2l-5.6 16.9c-.1.3-.4.6-.9.6h-.6c-.3 0-.6-.2-.8-.5L49 17.5l-5.5 8.7c-.2.3-.5.5-.8.5H42c-.4 0-.8-.3-.8-.6l-5.3-17zM65.4 8.9c0-.5.4-.9.9-.9h3.3c.4 0 .9.4.9.9v16.9c0 .5-.4.9-.9.9h-3.3c-.4 0-.9-.4-.9-.9V8.9zM91.6 25.2c-2.3-2.9-7.7-9.3-7.7-9.3s3.9-4 6-6.2c.3-.3.4-.7.2-1.1-.1-.4-.5-.5-.9-.6h-3.5c-.3 0-.5.1-.7.3-1.1 1.2-5.3 5.3-5.3 5.3V0c0-.3-.1-.5-.3-.7-.2-.2-.4-.3-.7-.3h-3.2c-.3 0-.5.1-.7.3.2.2.1.5.1.7v25.7c0 .3.1.5.3.7.2.2.4.3.7.3H79c.3 0 .5-.1.7-.3.2-.2.3-.4.3-.7v-5.9l.9-.8s4.8 5.8 5.9 7.3c.2.2.5.4.8.4H91c.4 0 .7-.1.9-.5.1-.3 0-.7-.3-1zM64.7 2.2C64.7.4 66.1-1 67.9-1c1.8 0 3.2 1.4 3.2 3.2 0 1.8-1.4 3.2-3.2 3.2-1.8.1-3.2-1.4-3.2-3.2zM104.9 14.9c-.1-1.8-1.5-3.2-3.6-3.2-2.3 0-3.7 1.4-4 3.2h7.6zm4 7.4c.4.3.5.8.2 1.2-1.4 1.9-4.1 3.5-7.6 3.5-5.6 0-9.4-4.4-9.4-9.8 0-5.2 3.9-9.7 9.4-9.7 4.8 0 8.6 3.6 8.6 8.6 0 .3-.1.9-.1 1.2 0 .5-.4.8-.9.8H97c0 2.3 1.9 4.2 4.6 4.3 1.1 0 2.6-.2 4-1.7.3-.3.8-.4 1.2-.1.7.6 1.5 1.3 2.1 1.7zM123.2 26.2002c.4-.2.6-.6.5-1-.1-.7-.4-1.6-.5-2.3-.1-.2-.2-.4-.4-.6-.2-.1-.4-.2-.7-.1-.7.2-1.6.4-2.3.4-.6 0-1.1-.4-1.1-1v-9h4.2c.5 0 .9-.4.9-.9v-2.7c0-.5-.4-.9-.9-.9h-4.2v-5c0-.5-.4-.9-.9-.9h-3.3c-.4 0-.9.4-.9.9v4.9h-1.5c-.4 0-.8.4-.8.9v2.7c0 .4.4.9.8.9h1.5v8.5c0 3.2 1 6 5.1 6 .5 0 1 0 1.4-.1h.1c1.1-.1 2.2-.4 3-.7z" fill="#004E4C"/><path fill-rule="evenodd" clip-rule="evenodd" d="M12.2 0c12.2 0 12.3 5.6 12.3 12.2s0 15.2-11 15.2c-.7 0-1.3-.5-1.3-1.2v-1.9c0-.6-.5-1.2-1.1-1.2C-.299999 22.8 0 18.9 0 12.2 0 5.6 0 0 12.2 0z" fill="#FAA834"/><path d="M4.3 32.7c0-1.8 1.4-3.2 3.2-3.2 1.8 0 3.2 1.4 3.2 3.2 0 1.8-1.4 3.2-3.2 3.2-1.8 0-3.2-1.5-3.2-3.2z" fill="#FAA834"/></g><defs><clipPath id="clip0"><path fill="#fff" d="M0 0h123.9v35.9H0z"/></clipPath></defs></svg>